<?xml version="1.0" encoding="utf-8"?>
<!-- Generator: Adobe Illustrator 15.1.0, SVG Export Plug-In . SVG Version: 6.00 Build 0)  -->
<!DOCTYPE svg PUBLIC "-//W3C//DTD SVG 1.1//EN" "http://www.w3.org/Graphics/SVG/1.1/DTD/svg11.dtd">
<svg version="1.1" id="Capa_1" xmlns="http://www.w3.org/2000/svg" xmlns:xlink="http://www.w3.org/1999/xlink" x="0px" y="0px"
	 width="166.667px" height="60.667px" viewBox="0 0 166.667 60.667" enable-background="new 0 0 166.667 60.667"
	 xml:space="preserve">
<g>
	<path fill-rule="evenodd" clip-rule="evenodd" d="M73.544,18.471c-0.601,0.479-1.158,1.244-1.116,1.914
		c-0.287,0.656-1.01,1.594-0.479,2.551c1.676,0.83,5.209-0.401,5.898,1.435c0,2.71,0,5.421,0,8.132
		c-0.886,1.107-3.274,1.102-5.101,0.797c-0.01,2.361-0.53,4.986-0.16,7.494c0.085,0.574,0.531,1.121,0.638,1.752
		c0.22,1.324,0.02,2.996,0,4.307c-0.021,1.377,0.005,2.637-0.956,3.346c-2.427-0.254-6.882,0.949-9.088,0
		c-1.047-0.449-0.949-1.486-1.595-2.23c-0.077-4.334,0.634-9.139,0.16-13.871c-0.055-0.537-0.271-1.031-0.319-1.594
		c-0.235-2.723,0.27-5.813,0-8.77c-0.149-1.62-0.457-4.849,0-6.695c0.193-0.784,1.096-1.467,0.956-2.393
		c0.839-0.436,1.225-1.327,1.753-2.074c0.924-0.398,1.691-0.984,2.871-1.592c0.624-0.322,1.363-0.814,1.913-0.957
		c2.053-0.533,4.391-0.064,6.854,0c0.546-0.074,0.435,0.753,0.638,1.275c0.362,0.92,0.445,1.314,0.639,2.869
		c0.192,1.548,0.866,2.37,0.479,3.19C76.967,18.541,75.48,18.457,73.544,18.471z"/>
	<path fill-rule="evenodd" clip-rule="evenodd" d="M46.918,14.645c0.044-1.445,0.776-2.199,1.594-2.871
		c1.563-0.423,2.678,0.41,3.668,0.641c0.621,0.143,1.297,0.032,1.914,0.156c1.291,0.266,2.951,0.857,4.781,0.958
		c0.157,0.694,1.16,0.538,1.436,1.116c0.568,1.104-0.521,2.444-0.639,3.986c-0.035,0.472,0.221,0.929,0.161,1.436
		c-0.065,0.564-0.4,1.168-0.479,1.752c-0.335,2.477-0.124,6.176,0,9.408c0.125,3.227-0.307,6.414,0,8.609
		c0.085,0.613,0.407,1.027,0.479,1.592c0.359,2.811,0.209,7.25-1.436,7.973c-1.437,0.631-3.947,0.16-6.059,0.16
		c-2.075,0-4.11,0.113-5.899-0.16c-0.434-1.105-0.992-2.092-1.116-3.508c-1.229,0.738-2.086,1.846-3.187,2.711
		c-1.407,0.508-2.73,1.098-3.988,1.754c-1.813-0.186-3.357,0.256-4.781,0c-1.182-0.211-2.093-1.223-3.349-0.957
		c-3.176-1.539-6.081-4.17-8.131-7.334c-1.096-1.693-1.646-2.844-2.39-5.1c-0.18-0.539-0.555-1.121-0.64-1.596
		c-0.229-1.313,0-2.955,0-4.307c0-2.543,0.008-4.213,0.479-6.057c0.319-1.254,0.491-1.719,0.956-2.709
		c0.156-0.33,0.166-0.814,0.321-1.117c0.141-0.28,0.457-0.46,0.636-0.797c0.176-0.33,0.171-0.869,0.319-1.115
		c0.298-0.498,0.928-1.096,1.276-1.595c0.44-0.635,0.826-1.295,1.116-1.595c0.115-0.121,0.517-0.552,0.636-0.637
		c0.263-0.189,0.662-0.126,0.957-0.32c0.246-0.16,0.243-0.469,0.478-0.639c0.192-0.135,0.551-0.137,0.798-0.318
		c0.183-0.134,0.318-0.538,0.479-0.638c0.584-0.362,1.438-0.274,1.752-0.958c1.004,0.047,1.572-0.34,2.074-0.797
		c2.007-0.223,5.4-1.1,8.449-0.637c1.089,0.167,2.068,0.969,3.029,0.799C44.014,12.873,45.218,14.006,46.918,14.645z M46.234,32.164
		c0.451-1.709,0.031-1.955-0.174-3.482c-0.074-0.541,0.101-1.107,0-1.395c-0.212-0.602-1.871-2.656-2.265-2.956
		c-0.194-0.151-1.716-0.94-2.088-1.046c-1.591-0.451-3.774-1.142-5.222,0c-5.157,4.066-6.735,10.982,2.957,14.623
		c1.07-0.383,1.242,0.131,3.483-0.869C44.827,36.189,45.651,34.361,46.234,32.164C46.686,30.455,45.651,34.361,46.234,32.164z"/>
	<path fill-rule="evenodd" clip-rule="evenodd" d="M123.126,11.773c-0.306,3.197,0.507,7.285,0,10.844
		c-0.091,0.633-0.56,1.284-0.639,1.914c-0.183,1.514,0.16,3.475,0.16,5.418c0,3.527,0,7.463,0,11.162
		c0,1.936-0.334,3.857-0.16,5.262c0.079,0.609,0.662,1.17,0.639,1.75c-0.251,1.08-1.137,1.523-1.754,2.234
		c-2.514-0.521-8.217,1.092-9.247-0.957c-0.749-1.49-0.156-5.518-0.156-8.131c0-5.785,0-10.822,0-16.581
		c0-3.007,0.251-5.992-0.165-8.13c-0.125-0.66-0.528-1.166-0.636-1.914c-0.116-0.822,0.088-1.557,0-2.393
		c0.885-1.536,4.05-1.115,7.175-1.115C120.238,11.137,122.289,10.934,123.126,11.773z"/>
	<path fill-rule="evenodd" clip-rule="evenodd" d="M138.114,11.936c0.62,1.402-0.151,2.763-0.32,4.145
		c-0.133,1.106,0.267,2.18,0.16,3.348c-0.069,0.736-0.552,1.48-0.639,2.232c-0.492,4.293,0,9.129,0,13.871c0,4.59,0,9.242,0,13.709
		c-1.525,1.891-6.64,0.998-9.565,0.957c0.299-0.17-0.771-0.547-0.955-0.797c-0.85-1.152-0.479-5.117-0.479-7.973
		c0-3.172,0-5.213,0-8.449c0-6.732,0.354-12.064,0.158-16.579c-0.067-1.521-1.506-4.986,0.797-5.263c1.546-0.186,3.857,0,5.898,0
		C135.106,11.137,137.15,10.898,138.114,11.936z"/>
	<path fill-rule="evenodd" clip-rule="evenodd" d="M90.443,23.573c0.619,1.335,0.746,3.159,0.478,4.942
		c-0.088,0.594-0.572,1.188-0.638,1.754c-0.096,0.826,0.16,2.012,0.16,3.029c0,0.973-0.235,2.094-0.16,2.869
		c0.06,0.615,0.516,1.004,0.638,1.594c0.084,0.404-0.177,0.613-0.159,0.957c0.029,0.578,0.575,1.436,0.955,2.074
		c2.113,0.719,4.026-0.09,5.103-1.277c0.34-2.758-0.34-6.146,0-9.246c0.076-0.693,0.403-1.266,0.479-1.912
		c0.245-2.063-0.63-3.962,0.8-4.943c2.718-0.257,6.526-0.273,9.247,0c1.323,0.843,1.676,2.418,1.434,4.145
		c-0.085,0.605-0.552,1.17-0.64,1.754c-0.422,2.809,0,6.457,0,9.885c0,3.43,0,6.867,0,9.885c-0.306,0.596-1.185,0.621-1.434,1.275
		c-2.774-0.098-5.939,0.199-8.449-0.16c-0.696-0.738-0.775-2.096-1.276-3.027c-1.836,1.248-4.078,2.084-6.059,3.188
		c-1.533-0.16-2.802,0.221-3.986,0c-1.014-0.189-1.782-1.162-2.869-0.957c-0.965-1.055-2.065-1.973-3.029-3.027
		c0.059-0.822-0.725-1.234-0.957-2.074c-0.322-1.164,0-2.496-0.158-3.826c-0.063-0.537-0.395-1.053-0.479-1.594
		c-0.118-0.768,0.084-1.859,0-2.711c-0.144-1.447-0.288-2.803,0-4.941c0.078-0.584,0.409-1.064,0.479-1.596
		c0.236-1.816-0.234-3.749,0.318-4.942c0.257-0.556,1.213-0.931,1.596-1.435C84.625,23.438,88.171,22.868,90.443,23.573z"/>
	<path fill-rule="evenodd" clip-rule="evenodd" d="M43.001,28.719c0.597,1.449,0.638,2.332,0,3.316
		c-0.564,0.787-1.282,1.422-1.966,2.088c-1.764,0.465-2.428,0.506-3.932,0c-0.937-0.875-2.241-2.164-2.213-3.807
		c0.019-1.043,0.774-1.578,0.984-2.58c1.378-1.295,3.767-2.012,5.528-0.738C42.062,27.475,42.456,28.133,43.001,28.719z"/>
</g>
</svg>
