<?xml version="1.0" encoding="utf-8"?>
<!-- Generator: Adobe Illustrator 15.1.0, SVG Export Plug-In . SVG Version: 6.00 Build 0)  -->
<!DOCTYPE svg PUBLIC "-//W3C//DTD SVG 1.1//EN" "http://www.w3.org/Graphics/SVG/1.1/DTD/svg11.dtd">
<svg version="1.1" id="Capa_1" xmlns="http://www.w3.org/2000/svg" xmlns:xlink="http://www.w3.org/1999/xlink" x="0px" y="0px"
	 width="166.667px" height="60.667px" viewBox="0 0 166.667 60.667" enable-background="new 0 0 166.667 60.667"
	 xml:space="preserve">
<g>
	<path fill-rule="evenodd" clip-rule="evenodd" d="M114.613,22.744c1.906,1.405,2.853-0.437,4.238-1.357
		c0.662-0.439,1.381-0.398,1.696-1.018c1.689-0.537,3.767-1.316,6.445-1.358c1.603-0.024,3.35,0.376,4.749,0.681
		c1.043-0.373,1.156-1.674,2.036-2.207c1.739-0.182,2.563-1.285,4.751-1.018c1.422,1.402,3.458,2.199,4.917,3.563
		c-0.082,2.232,0.88,3.418,0.852,5.597c3.221,0.106,5.398,2.29,7.462,4.071c0,1.076,0,2.148,0,3.226
		c0.194,0.683-0.444,0.103-0.679,0.336c-0.131,0.131-0.054,0.542-0.168,0.681c-0.12,0.136-0.408,0.196-0.51,0.338
		c-0.463,0.644-0.984,2.067-1.696,2.716c-0.42,0.38-1.034,0.334-1.356,0.847c-1.71-0.391-2.576,0.562-3.904,0.85
		c-0.823,0.18-1.656,0-2.372,0.168c-1.332,0.315-2.075,1.034-3.226,0.849c-0.653-0.104-1.354-1.021-2.034-1.017
		c-1.182,0.001-1.986,1.404-2.714,1.865c-0.999,0.018-1.463,0.573-2.035,1.02c-2.751,0.895-8.216,1.838-10.688,0.168
		c-0.776,0.185-1.08,1.214-1.694,1.694c-0.199,0.156-0.751,0.161-1.017,0.341c-0.657,0.439-0.786,0.487-1.868,0.85
		c-0.477,0.157-0.799,0.569-1.186,0.678c-0.64,0.176-1.406,0.025-2.035,0.168c-0.719,0.166-1.317,0.698-2.036,0.851
		c-1.2,0.252-2.542-0.077-3.563,0.676c-1.277-0.326-2.147-1.897-3.393-1.694c-0.905,0.677-1.173,1.994-2.036,2.713
		c-2.025,0-2.271,1.256-4.071,1.188c-1.49-0.055-2.509-2.064-3.563-2.036c-0.966,0.029-1.241,1.069-1.866,1.865
		c-1.547,1.112-3.397,1.919-5.089,2.885c-2.085-0.04-3.994,1.008-5.936,0.849c-1.264-0.104-2.268-0.816-3.564-0.849
		c-1.08-0.56-2.016-1.265-2.883-2.036c-1.135,1.524-2.051,3.264-3.053,4.921c-1.354,0.853-3.238,1.173-5.598,1.017
		c-1.484-0.892-2.666-2.085-4.24-2.883c-1.054-1.268-0.523-3.014-1.018-5.431c-0.178-0.86-0.698-1.738-0.85-2.713
		c-0.116-0.75-0.021-1.552-0.169-2.204c-0.246-1.087-1.005-1.952-0.678-3.563c0.166-0.826,0.93-1.12,1.017-1.866
		c-0.982-0.318-1.312,0.517-2.205,0.51c-1.074-0.012-2.062-1.254-3.562-0.851c-0.465,0.216-0.771,1.504-1.356,1.868
		c-0.289,0.176-1.093,0.146-1.698,0.339c-1.519,0.48-2.138,1.093-3.562,0c-0.562,1.345-1.793,1.29-3.9,1.696
		c-0.771,0.149-1.479,0.688-2.206,0.85c-0.617,0.134-1.402,0.027-2.035,0.168c-2.295,0.508-3.684,1.708-5.089,0
		c-0.812,0.202-1.368,1.257-2.374,1.694c-0.37,0.161-0.875,0.021-1.356,0.172c-0.417,0.128-0.738,0.528-1.188,0.679
		c-0.663,0.222-1.616,0.146-2.375,0.34c-0.639,0.161-1.205,0.564-1.697,0.678c-0.516,0.116-2.901,0.545-3.392,0.509
		c-1.075-0.082-2.227-1.123-3.053-1.696c-0.992-0.688-1.854-1.288-2.545-2.034c0.161-1.307-0.635-2.613-0.849-3.903
		c-0.185-1.129,0.307-2.499-0.678-3.223c0-2.602,0-5.201,0-7.804c0.469-0.394,0.596-0.899,1.018-1.527
		c0.525-0.785,1.11-1.952,2.204-2.372c0.497-0.193,1.261-0.024,2.036-0.172c0.744-0.139,1.345-0.674,2.036-0.846
		c0.838-0.211,1.746-0.03,2.375-0.172c1.146-0.252,2.153-0.876,3.053-0.846c0.892,0.027,1.772,0.582,2.544,0.677
		c0.693-0.372,0.874-1.325,1.695-1.694c0.304-0.139,0.993-0.026,1.526-0.172c0.514-0.139,0.983-0.592,1.358-0.678
		c0.75-0.172,1.608,0.005,2.375-0.169c0.578-0.132,0.977-0.531,1.526-0.681c1.168-0.314,2.481-0.035,3.392-0.678
		c0.579,0.1,0.893,0.465,1.527,0.51c1.871-1.77,6.785-2.877,9.331-1.019c1.103-0.865,1.027-2.003,2.205-2.544
		c1.862-0.86,5.071,0.643,5.936-1.187c4.049-0.866,8.66-2.929,13.401-1.526c0.821-0.596,1.248-1.582,2.035-2.207
		c1.527,0.113,2.411-0.414,3.393-0.846c0.584-0.076,0.951,0.066,1.355,0.167c0.907-0.167,1.787-0.941,2.889-1.185
		c0.701-0.158,1.524,0.039,2.372-0.172c0.533-0.132,0.943-0.542,1.526-0.678c0.664-0.154,1.524-0.025,2.207-0.168
		c2.204-0.477,4.304-1.745,5.767,0c1.003-0.356,1.703-1.013,2.375-1.698c0.899-0.117,1.546-0.487,2.036-1.018
		c1.106,0.219,1.849-0.639,2.714-0.846c7.601-1.833,13.897,3.554,14.757,10.345c0.269,2.124-0.562,3.327-0.85,5.258
		C116.312,20.372,115.425,21.523,114.613,22.744z M112.578,12.736c-0.052-0.166-0.897-1.848-1.02-2.036
		c-0.597-0.901-1.066-0.907-1.865-1.357c-0.401-0.225-0.673-0.622-0.85-0.678c-4.629-1.453-10.752,1.446-11.364,5.766
		c-0.208,1.449,0.229,2.393,0.51,3.226c0.19,0.572,0.19,1.263,0.339,1.526c0.721,1.28,2.85,2.249,4.75,2.372
		c2.407,0.158,4.516-0.428,5.596-1.017c0.465-0.252,1.061-0.304,1.358-0.509c1.34-0.924,1.685-2.208,2.546-3.223
		C112.705,15.332,112.926,13.949,112.578,12.736z M90.522,12.228c-0.751,0.165-1.591-0.009-2.371,0.168
		c-0.698,0.157-1.345,0.7-2.036,0.851c-0.962,0.203-1.923-0.153-2.716,0.507c0.246,0.433-0.11,1.467,0.508,1.527
		c1.301,0.62,1.906-0.921,3.395-0.677c1.923,2.369,1.61,6.982,2.544,10.346c1.204-0.098,2.277-0.327,2.887-1.018
		c0.456-1.001-0.462-2.004-0.682-3.054c-0.221-1.063-0.205-2.96-0.509-4.239c-0.184-0.762-0.739-1.541-0.51-2.208
		c0.587-1.697,3.81-0.298,3.903-2.712C93.561,10.656,92.028,11.895,90.522,12.228z M77.632,15.28
		c1.484,3.321,1.257,8.354,2.715,11.704c0.99-0.196,2.367-0.008,3.053-0.508c-0.93-3.824-1.797-7.703-2.207-12.046
		C79.832,13.949,78.673,14.898,77.632,15.28z M73.561,28.512c0.642-0.924,2.038-1.641,2.376-3.054
		c0.801-3.362-0.76-6.878-2.376-8.312c-4.048-0.962-7.818,0.59-11.195,1.355c0.986,3.822,1.718,7.896,2.206,12.214
		C67.669,30.082,70.743,29.424,73.561,28.512z M56.428,20.029c-0.385,2.4,2.148,5.758,0.68,8.141
		c-1.844-0.82-2.491-2.267-3.903-3.898c-0.838-0.974-1.914-2.509-2.712-2.717c-1.186-0.304-2.449,0.56-4.072,0.51
		c-0.465,1.201,0.442,2.359,0.678,3.562c0.158,0.803,0.025,1.679,0.17,2.544c0.338,2.016,1.243,4.036,1.018,6.107
		c0.981,0.319,2.655-0.027,2.882-1.019c-0.948-1.876-0.811-4.839-1.694-6.782c0.319-0.02,0.118-0.563,0.508-0.51
		c0.799-0.111,0.916,0.053,1.357,0.34c0.52,0.338,0.341,0.625,0.678,1.018c0.485,0.562,1.178,1.118,1.696,1.695
		c0.692,0.77,2.548,3.21,3.394,3.394c1.373,0.294,2.218-0.939,3.9-1.019c-0.702-4.047-1.481-8.019-2.206-12.043
		C58.013,19.578,57.373,19.957,56.428,20.029z M135.477,22.573c0.669,3.767,1.617,8.07,1.864,11.704
		c1.2,0.596,2.326-0.395,3.563-0.677c1.648-0.378,2.976-0.194,3.901-1.02c0.623-0.055,1.503,0.145,1.868-0.168
		c0.086-0.71-0.096-1.148-0.341-1.526c-1.011,0.356-2.288,0.19-3.393,0.508c-1.129,0.326-1.848,1.104-2.716,0.17
		c-0.565-3.225-1.141-6.434-1.694-9.669C137.468,21.52,136.245,22.128,135.477,22.573z M42.351,22.914
		c-0.875,1.018-2.561,0.566-4.071,1.018c-0.588,0.174-0.964,0.561-1.527,0.677c-1.248,0.263-2.875-0.144-3.562,1.018
		c0.768,3.135,1.601,7.673,2.036,11.705c2.061,0.221,3.327-0.746,4.579-1.018c0.447-0.095,0.936,0.052,1.357,0
		c1.297-0.161,2.514-0.955,3.732-1.187c0.218-0.385-0.229-1.278-0.341-1.868c-1.579,0.907-3.852,1.124-5.766,1.698
		c-0.852-0.528-1.085-2.12-0.849-3.223c1.247-0.848,3.093-1.091,4.921-1.356c-0.182-0.792,0.441-1.338,0-1.866
		c-1.81-0.435-2.876,1.293-5.26,0.848c-0.63-0.641-0.948-2.322-0.338-3.224c2.169-0.205,3.645-1.104,5.766-1.356
		C43.2,24.352,43.037,23.024,42.351,22.914z M123.601,24.608c-0.32,0.092-0.613,0.468-1.019,0.681
		c-0.485,0.252-1.062,0.313-1.354,0.509c-0.116,0.075-0.166,0.526-0.341,0.679c-0.279,0.24-0.683,0.171-0.849,0.34
		c-0.401,0.409-0.48,1.166-1.018,1.354c-0.65,1.986-0.474,4.066,0,6.107c0.765,1.16,1.773,2.072,2.885,2.885
		c5.52,0.886,9.801-0.788,11.534-4.239c0.666-4.011-0.605-6.927-3.053-8.314C127.899,24.633,125.632,24.041,123.601,24.608z
		 M28.61,26.645c-3.931-0.086-6.225,1.465-9.668,1.867c-0.066,0.893,0.658,1.639,0.848,2.545c0.18,0.855-0.022,1.844,0.17,2.712
		c0.134,0.61,0.551,1.111,0.677,1.697c0.398,1.846-0.139,3.866,1.019,5.259c0.955-0.656,2.568-0.485,3.902-0.851
		c0.56-0.15,0.978-0.547,1.526-0.678c0.652-0.154,1.44,0.026,2.035-0.168c0.307-0.101,0.861-0.633,1.187-0.849
		c0.55-0.36,1.023-0.506,1.188-0.849c0.434-0.904,0.059-2.149,0-3.222c-0.636-0.833-2.129-0.811-2.714-1.696
		C30.094,30.731,30.782,27.975,28.61,26.645z M115.289,30.547c0.076-1.571-1.429-2.92-2.543-3.053
		c-0.947-0.114-1.856,0.566-3.053,0.848c-0.655,0.152-1.387,0.01-2.036,0.17c-1.3,0.32-2.272,1.125-3.73,1.018
		c-0.122,0.914,0.658,1.639,0.846,2.545c0.198,0.962-0.05,2.078,0.171,3.053c0.126,0.564,0.548,0.967,0.678,1.526
		c0.401,1.732-0.132,3.78,1.019,4.921c0.604,0.535,0.999-0.576,1.695-0.51c2.516,0.254,3.391-1.137,5.77-1.017
		c0.656-0.527,1.459-0.916,2.204-1.358c0.418-1.358,0.218-1.857,0.168-3.563c-0.687-0.786-2.086-0.857-2.544-1.868
		C114.259,32.104,115.238,31.628,115.289,30.547z M97.647,31.225c-0.485,0.1-1.034-0.082-1.526,0
		c-0.688,0.115-1.352,0.693-2.036,0.85c-1.193,0.268-2.411,0.014-3.389,0.507c-0.018,0.726-0.345,1.242,0,1.868
		c1.763,0.326,1.962-1.038,3.221-0.849c1.674,0.252,1.143,2.142,1.526,4.071c0.19,0.968,0.728,1.735,0.85,2.544
		c0.212,1.454-0.119,2.831,0.168,3.562c1.315,0.072,2.404-0.085,3.055-0.677c0.008-3.089-1.674-6.785-1.358-10.178
		c1.012-0.8,3.264-0.355,3.901-1.528C101.516,29.07,99.087,30.932,97.647,31.225z M80.854,32.242
		c1.102,0.438,2.246-0.436,2.545-1.355C82.735,30.884,80.753,30.923,80.854,32.242z M84.927,34.109
		c0.298,2.029,1.599,6.586,1.188,9.159c-0.201,1.247-2.235,2.352-3.904,2.036c-2.855-1.611-1.962-6.969-3.392-10.008
		c-0.943,0.241-1.688,0.688-2.715,0.847c-0.08,0.56,0.246,0.966,0.34,1.528c0.146,0.855-0.025,1.812,0.17,2.712
		c0.121,0.559,0.549,1.073,0.679,1.699c0.226,1.081,0.131,2.084,0.169,3.222c0.846,1.173,1.926,1.996,3.393,2.203
		c1.727,0.247,2.939-0.437,3.9-0.677c1.377-0.344,1.481-0.181,2.379-0.678c0.299-0.17,0.81-0.36,1.018-0.51
		c1.829-1.329,1.282-3.293,1.017-5.26c-0.331-2.419-0.499-5.141-1.188-7.293C86.813,33.281,86.096,33.921,84.927,34.109z
		 M64.062,38.857c0.552,4.198,1.545,7.958,2.205,12.045c0.93-0.315,2.088-0.401,3.055-0.679c0.16-2.084-1.071-2.773-0.85-4.919
		c1.438-0.771,3.338-1.074,4.92-1.696c-0.008-0.671-0.373-0.983-0.51-1.525c-2.119,0.97-5.902,1.42-5.428-1.358
		c0.441-2.572,5.281-0.559,5.938-3.223c-0.227-0.113-0.316-0.365-0.34-0.681C69.765,37.212,66.97,38.089,64.062,38.857z"/>
	<path fill-rule="evenodd" clip-rule="evenodd" d="M104.604,10.531c1.025-0.137,2.071-0.036,2.713,0.338
		c1.383,0.811,2.561,3.274,2.206,5.089c-0.268,1.368-1.676,2.708-3.054,3.394c-0.541,0.268-0.967,0.494-1.357,0.51
		c-2.321,0.082-4.739-2.665-4.58-5.09c0.031-0.479,0.265-0.639,0.51-1.187c0.442-0.984,0.401-1.123,1.187-1.866
		C103.045,10.946,103.19,10.717,104.604,10.531z"/>
	<path fill-rule="evenodd" clip-rule="evenodd" d="M67.964,28.002c-1.633-1.676-1.693-5.729-1.865-8.311
		c3.822-2.191,7.711,0.346,6.615,5.598C71.728,26.788,70.243,27.793,67.964,28.002z"/>
	<path fill-rule="evenodd" clip-rule="evenodd" d="M123.772,34.957c-0.355-0.827-1.36-1.102-1.698-2.034
		c-0.404-1.113-0.368-3.289,0-4.243c0.801-2.08,4.472-3.383,6.615-1.695c3.018,2.369,1.771,8.446-2.713,8.481
		C125.244,35.474,124.603,34.945,123.772,34.957z"/>
	<path fill-rule="evenodd" clip-rule="evenodd" d="M26.235,28.68c2.764,1.643-0.069,4.231-2.883,4.243
		C21.537,30.784,22.276,27.982,26.235,28.68z"/>
	<path fill-rule="evenodd" clip-rule="evenodd" d="M108.335,33.939c-0.542-0.646-0.7-1.676-1.188-2.375
		c0.308-2.564,5.206-2.652,5.259-0.17C112.444,33.252,110.213,33.608,108.335,33.939z"/>
	<path fill-rule="evenodd" clip-rule="evenodd" fill="#FFFFFF" d="M83.399,30.887c-0.299,0.92-1.443,1.793-2.545,1.355
		C80.753,30.923,82.735,30.884,83.399,30.887z"/>
	<path fill-rule="evenodd" clip-rule="evenodd" d="M28.441,34.787c0,0.621,0,1.243,0,1.866c-0.704,0.993-2.593,1.703-4.071,1.358
		c-0.783-0.576-0.977-1.739-1.018-3.055C24.909,34.123,27.293,32.878,28.441,34.787z"/>
	<path fill-rule="evenodd" clip-rule="evenodd" d="M113.255,35.466c1.098,2.998-1.604,3.571-3.731,3.9
		c-0.769-0.701-1.172-1.767-1.188-3.223C109.377,35.032,111.914,34.403,113.255,35.466z"/>
</g>
</svg>
