<?xml version="1.0" encoding="utf-8"?>
<!-- Generator: Adobe Illustrator 15.1.0, SVG Export Plug-In . SVG Version: 6.00 Build 0)  -->
<!DOCTYPE svg PUBLIC "-//W3C//DTD SVG 1.1//EN" "http://www.w3.org/Graphics/SVG/1.1/DTD/svg11.dtd">
<svg version="1.1" id="Capa_1" xmlns="http://www.w3.org/2000/svg" xmlns:xlink="http://www.w3.org/1999/xlink" x="0px" y="0px"
	 width="307px" height="92.5px" viewBox="-2.781 52.5 307 92.5" enable-background="new -2.781 52.5 307 92.5" xml:space="preserve"
	>
<g>
	<path fill="#8D68E0" d="M157.432,89.303c7.653-3.449,17.676,0.042,19.642,7.717c1.49,5.815,1.786,19.295-0.701,22.1
		c-2.568,2.896-7.918,1.964-9.47-0.702c-3.445-5.917,2.688-18.063-4.209-18.938c-9.076-1.154-2.512,12.82-5.612,18.59
		c-1.456,2.709-7.662,4.054-10.172,0.701c-2.205-2.945-1.052-14.561-1.052-20.694c0-3.655,0-6.978,0-10.873
		c0-3.636-0.506-8.406,0.351-10.522c1.301-3.214,7.627-4.604,10.172-1.402C158.681,78.168,156.803,83.45,157.432,89.303z"/>
	<path fill="#8D68E0" d="M102.014,74.221c4.107-0.866,8.289,1.737,8.418,6.313c0.289,10.317-16.223,9.112-13.682-1.754
		C97.08,77.38,98.685,74.922,102.014,74.221z"/>
	<path fill="#8D68E0" d="M185.491,74.221c9.402-2.072,11.268,11.501,3.508,13.328C180.835,89.473,176.129,76.285,185.491,74.221z"/>
	<path fill="#8D68E0" d="M209.343,108.943c-1.946,4.646,1.526,12.31-0.699,17.539c-1.5,3.519-8.299,4.397-10.522,0.701
		c-1.752-2.912-1.053-11.4-1.053-17.188c0-13.833-1.304-25.715,5.963-31.918c10.968-9.364,28.443-1.408,29.112,12.627
		C232.694,102.307,223.426,112.175,209.343,108.943z M208.642,91.057c-0.524,5.809,3.366,7.252,6.664,7.017
		c7.916-0.567,6.734-14.349-2.456-11.927C209.797,86.95,208.832,88.938,208.642,91.057z"/>
	<path fill="#8D68E0" d="M284.052,74.221c10.562-2.84,11.792,13.527,2.104,13.679C279.112,88.011,275.904,76.412,284.052,74.221z"/>
	<path fill="#8D68E0" d="M239.857,74.922c2.83-0.466,6.008,0.899,7.016,3.508c1.729,4.479-1.839,9.404-5.963,9.471
		C233.643,88.018,231.938,76.227,239.857,74.922z"/>
	<path fill="#8D68E0" d="M267.918,87.9c1.367,0.735,4.033,0.175,5.963,0.351c5.188,2.968,2.874,13.394-5.61,10.873
		c-1.287,2.181-0.716,7.433-0.353,10.172c1.59,0.632,4.193,0.249,6.313,0.351c4.27,1.914,2.999,9.701-1.054,10.873
		c-15.48,2.854-18.443-6.81-16.837-21.045c-2.21-0.923-3.514,0.129-5.261-1.052c-4.014-2.711-1.884-12.399,4.91-10.172
		c0.462-4.803,0.052-10.632,4.56-11.575C267.354,75.253,268.002,81.352,267.918,87.9z"/>
	<path fill="#8D68E0" d="M126.916,87.198c5.564-0.841,15.336,1.09,15.436,7.717c0.033,2.412-1.881,5.067-4.91,5.262
		c-3.077,0.195-5.178-2.954-8.771-2.456c-5.166,0.719-7.256,10.471-0.701,11.926c5.887,1.31,5.009-3.17,9.821-2.806
		c1.9,0.144,4.257,2.623,4.562,4.209c1.106,5.82-5.57,9.159-10.172,9.82c-11.24,1.616-19.573-6.242-19.644-16.836
		C112.479,95.247,118.15,88.523,126.916,87.198z"/>
	<path fill="#8D68E0" d="M103.065,91.057c7.414-0.604,6.313,8.357,6.313,16.135c0,5.207,0.308,10.699-2.455,12.627
		c-2.318,1.621-6.521,1.022-8.065-0.699c-1.933-2.155-1.402-8.13-1.402-13.682C97.454,98.254,96.388,91.602,103.065,91.057z"/>
	<path fill="#8D68E0" d="M285.455,91.057c2.313-0.242,5.355,0.775,6.313,3.157c1.229,3.06,0.351,9.151,0.351,11.574
		c0,7.899,0.827,15.3-6.313,15.082c-6.569-0.199-5.611-6.981-5.611-15.082C280.194,97.04,278.629,91.771,285.455,91.057z"/>
	<path fill="#8D68E0" d="M185.491,91.407c7.808-1.986,7.717,5.448,7.717,13.68c0,5.196,0.519,11.583-1.052,13.679
		c-1.641,2.191-7.153,3.019-9.471,0c-1.525-1.983-2.081-20.613-1.054-24.201C182.07,93.04,183.45,91.927,185.491,91.407z"/>
	<path fill="#8D68E0" d="M238.806,91.407c1.927-0.548,5.519-0.316,7.015,2.454c1.644,3.045,0.702,9.974,0.702,15.082
		c0,5.552-0.064,10.373-3.858,11.576c-7.616,2.414-7.717-4.992-7.717-13.328C234.947,99.443,233.726,92.852,238.806,91.407z"/>
</g>
<g>
	<path fill="#8D68E0" d="M92.454,78.014c0-11.197,0.968-21.979-6.236-22.457c-3.056-0.202-7.461,3.518-9.981,5.613
		c-3.099,2.576-5.19,6.144-8.733,7.486c-8.316-3.451-21.311-2.51-30.564-0.624c-5.958-3.191-11.565-13.378-18.09-12.476
		c-8.47,1.172-6.242,17.42-6.242,27.447c0,7.19-0.598,15.073,0,20.584c2.125,19.583,16.754,35.788,37.426,37.427
		c21.469,1.702,38.223-14.405,41.794-29.316C93.974,102.738,92.454,92.297,92.454,78.014z M79.462,118.188
		c-2.184,5.371-10.053,4.154-11.926,0.701c-1.178-2.174-0.881-8.336-1.052-12.627c-0.257-6.438,1.276-13.963-3.858-14.029
		c-8.259-0.105-1.956,19.521-4.56,25.955c-1.146,2.826-6.503,5.348-10.522,2.455c-3.042-2.189-2.455-8.82-2.455-15.082
		c0-6.68,0.729-13.127-3.856-13.328c-8.571-0.377-1.582,22.885-5.963,27.709c-2.824,3.109-9.418,2.08-11.226-1.754
		c-1.402-2.98-0.702-9.439-0.702-14.029c0-4.848-0.403-10.625,0-14.73c0.938-9.465,9.884-18.168,21.396-14.029
		c2.248,0.805,4.111,2.053,6.313,5.258c4.578-2.979,5.66-6.285,11.927-6.313c7.349-0.032,15.604,4.756,16.836,13.68
		c0.586,4.238,0,9.387,0,15.434C79.815,108.187,80.78,114.956,79.462,118.188z"/>
</g>
</svg>
