<?xml version="1.0" encoding="utf-8"?>
<!-- Generator: Adobe Illustrator 15.1.0, SVG Export Plug-In . SVG Version: 6.00 Build 0)  -->
<!DOCTYPE svg PUBLIC "-//W3C//DTD SVG 1.1//EN" "http://www.w3.org/Graphics/SVG/1.1/DTD/svg11.dtd">
<svg version="1.1" id="Capa_1" xmlns="http://www.w3.org/2000/svg" xmlns:xlink="http://www.w3.org/1999/xlink" x="0px" y="0px"
	 width="166.667px" height="60.667px" viewBox="0 0 166.667 60.667" enable-background="new 0 0 166.667 60.667"
	 xml:space="preserve">
<g>
	<path fill-rule="evenodd" clip-rule="evenodd" d="M58.768,3.819c12.5,0,24.999,0,37.497,0c3.499,0.623,6.279,2.985,7.068,6.675
		c0.579,2.714,0.195,6.431,0.195,9.717c0,6.422,0,13.093,0,19.632c0,3.176,0.413,7.245-0.195,9.619
		c-0.88,3.426-3.649,5.621-7.166,6.282c-12.434,0-24.867,0-37.3,0c-3.456-0.499-6.964-3.338-7.363-7.46
		c-0.282-2.929,0-6.094,0-9.227c0-6.052,0-12.599,0-18.552c0-3.195-0.306-6.445,0-9.325C51.947,7.035,55.193,4.564,58.768,3.819z
		 M60.536,16.973c0.065,6.675-0.13,13.611,0.098,20.123c4.941-0.065,10.143,0.13,14.921-0.099c0-1.244,0-2.485,0-3.73
		c-3.633-0.064-7.526,0.131-10.995-0.098c0-1.57,0-3.142,0-4.712c3.24,0,6.479,0,9.718,0c0-1.21,0-2.421,0-3.632
		c-3.207-0.065-6.673,0.13-9.718-0.098c0-1.341,0-2.683,0-4.024c3.535-0.065,7.329,0.13,10.7-0.099c0-1.21,0-2.421,0-3.631
		C70.229,17.037,65.04,16.863,60.536,16.973z M84.781,16.875c-10.534,1.028-10.827,19.337,0.098,20.222
		c6.163,0.499,9.345-3.084,9.325-8.54c-1.243,0-2.485,0-3.73,0c-0.142,3.144-1.479,4.952-4.318,5.006
		c-3.857,0.073-5.812-3.565-5.497-7.46c0.258-3.186,2.214-5.621,5.202-5.694c2.51-0.06,4.275,1.341,4.516,3.73
		c1.243,0,2.487,0,3.73,0C93.726,19.274,90.334,16.333,84.781,16.875z M60.536,40.139c0.058,0.857-0.122,1.953,0.098,2.65
		c11.19-0.064,23.218,0.129,33.865-0.1c0-0.948,0-1.896,0-2.846c-11.289,0-22.577,0-33.865,0C60.519,39.86,60.527,40,60.536,40.139z
		"/>
</g>
</svg>
