<?xml version="1.0" encoding="utf-8"?>
<!-- Generator: Adobe Illustrator 15.1.0, SVG Export Plug-In . SVG Version: 6.00 Build 0)  -->
<!DOCTYPE svg PUBLIC "-//W3C//DTD SVG 1.1//EN" "http://www.w3.org/Graphics/SVG/1.1/DTD/svg11.dtd">
<svg version="1.1" id="Capa_1" xmlns="http://www.w3.org/2000/svg" xmlns:xlink="http://www.w3.org/1999/xlink" x="0px" y="0px"
	 width="166.667px" height="60.667px" viewBox="0 0 166.667 60.667" enable-background="new 0 0 166.667 60.667"
	 xml:space="preserve">
<g>
	<path fill-rule="evenodd" clip-rule="evenodd" d="M56.545,5.731c0.424,0.928,0.424,3.349,0,4.277
		c-2.091,0.537-4.831,0.267-7.617,0.267c-2.711,0-5.51-0.107-7.884,0.134c-0.288,1.49-0.134,3.581-0.134,5.611
		c0,2.021,0.089,4.055-0.133,5.746c1.797,0.479,4.004,0.268,6.146,0.268c2.118,0,4.286,0,6.281,0
		c0.195-0.738-0.184-2.15,0.132-3.073c-2.345-0.46-5.884,0.272-8.018-0.401c-0.188-1.4-0.292-3.259,0-4.41
		c1.627-0.457,3.919-0.266,6.014-0.266c2.169,0,4.369-0.287,5.88,0.4c0.474,1.713,0.267,3.979,0.267,6.146
		c0,2.173,0.199,4.429-0.267,6.146c-2.422,0.482-5.292,0.268-8.152,0.268c-2.777,0-5.646,0.109-8.151-0.133
		c-0.502-0.701-0.173-2.232-0.267-3.342c-1.129-0.385-3.146,0.117-4.275-0.267c-0.224-4.188-0.224-9.308,0-13.496
		c0.737-0.511,2.326-0.169,3.474-0.268c0.583-0.972-0.596-3.505,0.801-3.741c1.981-0.336,5.063,0,8.018,0
		C51.616,5.599,54.566,5.495,56.545,5.731z"/>
	<path fill-rule="evenodd" clip-rule="evenodd" d="M76.722,5.866c0.259,0.913,0.144,2.404,0,3.34c1.453,0.419,4-0.257,5.078,0.533
		c0.222,3.925,0.225,8.771,0,12.696c-1.08,0.522-3.047,0.159-4.542,0.267c-0.057,0.813,0.521,3.214-0.268,4.01
		c-3.745,0.22-8.414,0.224-12.16,0c-0.629-0.617-0.404-2.346-0.268-3.342c-0.955-0.381-2.785,0.113-3.74-0.267
		c-0.223-4.188-0.223-9.308,0-13.496c0.775-0.517,2.419-0.165,3.607-0.268c0.285-0.75-0.396-2.764,0.267-3.474
		c1.19-0.466,4.188-0.268,6.415-0.268C73.161,5.599,75.192,5.403,76.722,5.866z M66.033,10.676
		c-0.168,0.055-0.273,0.172-0.268,0.401c0,3.83,0,7.661,0,11.492c3.387,0.31,7.348,0.045,10.957,0.133
		c-0.526-1.469-0.266-3.713-0.266-5.879c0-2.206,0.188-4.459-0.268-6.147C72.804,10.676,69.417,10.676,66.033,10.676z"/>
	<path fill-rule="evenodd" clip-rule="evenodd" d="M101.578,5.866c0.494,0.753,0.289,2.543,0,3.34
		c1.09,0.379,3.094-0.155,4.01,0.401c0.469,1.931,0.268,4.427,0.268,6.815c0,2.346,0.209,4.789-0.268,6.681
		c-1.029,0.351-2.834-0.071-3.875,0.267c-0.045,1.259,0.404,2.535-0.268,3.342c-3.523,0.22-7.971,0.224-11.494,0
		c-0.5-0.701-0.174-2.232-0.264-3.342c-1.055-0.419-3.16,0.219-4.011-0.4c-0.243-2.059-0.135-4.49-0.135-6.814
		c0-2.334-0.2-4.641,0.268-6.548c0.744-0.369,1.972-0.257,3.076-0.268c0.387-0.858-0.121-2.614,0.266-3.474
		c0.098-0.126,0.244-0.203,0.402-0.268c1.949,0,4.076,0,6.146,0C97.748,5.599,99.879,5.39,101.578,5.866z M89.951,10.81
		c-0.482,0.684-0.264,1.674-0.264,2.539c0,2.885,0,5.816,0,8.551c3.254,0.226,7.43,0.221,10.688,0
		c-0.326-3.354-0.008-8.375-0.133-11.09C97.115,10.581,93.08,10.595,89.951,10.81z"/>
	<path fill-rule="evenodd" clip-rule="evenodd" d="M126.031,5.731c0.232,0.928,0.184,2.537,0,3.475
		c1.092,0.423,3.254-0.225,4.143,0.401c0.521,3.853,0.271,9.294,0.135,13.496c-1.061,0.364-2.955-0.104-4.01,0.267
		c-0.426,1.105,0.303,2.535-0.4,3.342c-2.41,0.242-5.201,0.133-7.885,0.133c-2.729,0-5.453,0.214-7.75-0.268
		c-0.479-1.549-0.268-3.302-0.268-5.077c0-3.496,0-7.058,0-10.69c0-1.771-0.215-3.534,0.268-5.078
		C115.217,5.511,121.082,5.511,126.031,5.731z M114.271,10.676c-0.162,0.027-0.297,0.171-0.4,0.267
		c-0.119,2.857,0.193,8.123-0.131,11.627c3.611,0.219,8.145,0.224,11.756,0c-0.086-3.924,0.176-8.193-0.131-11.894
		C121.822,11.091,117.559,10.119,114.271,10.676z"/>
	<path fill-rule="evenodd" clip-rule="evenodd" d="M57.214,34.194c0.418,0.777,0.418,2.964,0,3.742
		c-4.947,0.397-10.822-0.131-15.769,0.267c-0.472,0.157-0.043,0.66-0.134,1.069c-0.075,0.341-0.346,0.55-0.401,0.935
		c-0.199,1.421,0,3.377,0,5.211c0,1.805-0.279,3.671,0.268,4.812c3.741,0.312,8.062,0.044,12.026,0.134
		c0.061-0.918,0.061-2.557,0-3.474c-2.593-0.57-6.743,0.483-8.553-0.536c-0.388-0.971-0.121-2.873,0-4.143
		c3.88-0.22,8.683-0.224,12.562,0c0.475,1.802,0.267,4.157,0.267,6.414c0,2.258,0.208,4.615-0.267,6.415
		c-5.17,0.221-11.267,0.224-16.436,0c-0.275-0.928-0.072-2.334-0.134-3.475c-1.089-0.381-3.047,0.106-4.143-0.267
		c-0.475-1.874-0.267-4.389-0.267-6.815c0-2.362-0.241-4.782,0.267-6.413c0.684-0.457,2.122,0.035,3.341-0.134
		c0.42-0.961-0.236-2.998,0.4-3.742c0.103-0.098,0.236-0.24,0.401-0.267c2.399-0.407,5.542,0,8.418,0
		C51.961,33.928,54.852,33.714,57.214,34.194z"/>
	<path fill-rule="evenodd" clip-rule="evenodd" d="M77.524,34.061c0.47,0.905,0.223,2.483,0.135,3.608
		c1.16,0.737,3.329-0.297,4.142,0.667c0.223,5.214,0.223,11.358,0,16.57c-1.225,0.491-3.773,0.292-5.212,0.134
		c-0.297-0.906-0.054-2.351-0.132-3.475c-3.433-0.222-7.792-0.222-11.225,0c-0.042,0.643,0.447,2.663-0.134,3.475
		c-1.146,0.204-3.136,0.231-4.275,0c-0.243-4.004-0.135-8.607-0.135-12.961c0-1.383-0.212-2.803,0.266-4.009
		c0.723-0.494,2.106,0.05,3.342-0.134c0.473-0.788-0.237-2.82,0.4-3.742c1.291-0.467,4.349-0.267,6.681-0.267
		C73.519,33.928,75.713,33.819,77.524,34.061z M65.231,38.871c0.236,2.008,0.161,5.237,0,6.815c3.431,0.31,7.437,0.046,11.091,0.133
		c0.222-2.011,0.222-4.937,0-6.948C72.624,38.871,68.928,38.871,65.231,38.871z"/>
	<path fill-rule="evenodd" clip-rule="evenodd" d="M89.418,34.061c0.664,0.79,0.188,1.952,0.27,3.208
		c0.684,0.562,2.473,0.018,3.34,0.4c0.385,1.13-0.119,3.146,0.268,4.275c0.98,0.311,2.535,0.046,3.74,0.135
		c0.395-1.215-0.43-3.287,0.268-4.41c0.904-0.297,2.35-0.056,3.473-0.134c0.361-0.843-0.084-2.491,0.27-3.341
		c1.225-0.451,3.975-0.4,5.211,0c0.293,2.671,0.133,5.82,0.133,9.087c0,3.191-0.086,6.48,0,9.354
		c0.023,0.812,0.32,1.568-0.133,2.271c-1.344,0.489-4.059,0.298-5.613,0.134c-0.625-0.704-0.4-2.198-0.4-3.608
		c0-2.063-0.287-4.254,0.668-5.212c-0.061-1.147,0.088-2.735,0-3.474c-0.537-0.31-1.646-0.046-2.404-0.134
		c-0.371,1.014,0.096,2.858-0.268,3.876c-1.457,0.319-4.395,0.719-5.211-0.269c-0.268-0.768-0.123-2.007,0-2.806
		c-0.85-0.268-2.152-0.075-3.209-0.133c-0.297,0.721-0.131,1.716-0.131,2.673c0,2.824,0.105,6.39-0.135,9.086
		c-1.359,0.229-3.583,0.209-4.948,0c-0.217-6.599-0.221-14.113,0-20.713c0.076-0.191,0.21-0.325,0.402-0.399
		C86.439,34.009,88.205,33.758,89.418,34.061z"/>
	<path fill-rule="evenodd" clip-rule="evenodd" d="M110.131,33.928c6.637,0.088,13.627-0.178,20.043,0.133
		c0.451,0.872,0.303,2.804,0.135,3.876c-5.217,0.397-11.354-0.13-16.568,0.267c0.047,0.751,0.277,2.6,0,3.741
		c3.791,0.394,8.5-0.127,12.291,0.267c0.152,1.27,0.43,2.979-0.133,3.877c-3.924,0.308-8.416,0.046-12.561,0.132
		c-0.301,1.081-0.055,2.71-0.135,4.01c5.303,0.399,11.535-0.132,16.836,0.267c0.689,0.881,0.402,3.266,0.27,4.544
		c-6.553,0.224-14.029,0.224-20.578,0c-0.223-6.594-0.225-14.118,0-20.713C109.803,34.136,109.938,34.002,110.131,33.928z"/>
</g>
</svg>
