<?xml version="1.0" encoding="utf-8"?>
<!-- Generator: Adobe Illustrator 15.1.0, SVG Export Plug-In . SVG Version: 6.00 Build 0)  -->
<!DOCTYPE svg PUBLIC "-//W3C//DTD SVG 1.1//EN" "http://www.w3.org/Graphics/SVG/1.1/DTD/svg11.dtd">
<svg version="1.1" id="Capa_1" xmlns="http://www.w3.org/2000/svg" xmlns:xlink="http://www.w3.org/1999/xlink" x="0px" y="0px"
	 width="166.667px" height="60.667px" viewBox="0 0 166.667 60.667" enable-background="new 0 0 166.667 60.667"
	 xml:space="preserve">
<g>
	<path fill-rule="evenodd" clip-rule="evenodd" d="M23,34.025c0-2.996,0-6.295,0-9.465c0-3.234,1.598-5.56,0.636-8.56
		c-2.383,0-4.765,0-7.147,0c-0.226,0-0.21,0.142-0.193,0.416c-0.663,1.515-0.387,4.442-0.387,6.874
		c0,6.528-0.156,13.422,0.194,19.274c2.538,0.687,5.881,0.367,9.079,0.367c3.198,0,6.536,0.279,9.079-0.396
		c0.668-1.877-0.158-5.561-0.415-7.732C31.582,33.443,27,34.79,23,34.025z"/>
	<path fill-rule="evenodd" clip-rule="evenodd" d="M65.745,22.822c-0.171-0.164-0.589-0.041-0.771-0.193
		c-0.594-0.491-0.582-0.756-1.353-1.159c-1.058-0.551-1.704-0.784-3.092-1.159c-3.534-0.953-8.08-0.478-12.94-0.58
		c-0.278,0.108-0.473,0.302-0.58,0.58c-0.67,2.696-0.387,9.486-0.387,12.749c0,4.77-0.301,9.296,0.387,12.748
		c1.821,0.676,4.149,0.388,6.375,0.388c2.435,0,4.992,0.2,6.953,0c1.313-0.134,1.369-0.533,2.319-0.967
		c0.516-0.234,1.187-0.184,1.544-0.386c0.13-0.073,0.353-0.618,0.58-0.773c0.4-0.27,0.821-0.258,0.965-0.386
		c0.49-0.432,1.143-1.795,1.547-2.512c0.168-0.297,0.722-0.469,0.771-0.579c0.212-0.471,0.134-1.2,0.388-1.931
		c0.24-0.691,0.655-1.256,0.771-1.738c0.804-3.288-0.034-7.477-0.965-11.011C67.21,25.212,66.737,23.771,65.745,22.822z
		 M59.951,38.854c-1.094,0.732-2.96,1.647-4.828,0.967c0.321-3.922,0.3-9.015,0-12.941C62.341,24.779,61.645,34.678,59.951,38.854z"
		/>
	<path fill-rule="evenodd" clip-rule="evenodd" d="M79.267,39.82c0.563-1.048-0.31-2.937,0.387-3.477
		c1.758-0.625,5.106,0.341,6.568-0.579c0.598-1.354,0.598-4.635,0-5.989c-1.548-1.027-5.415,0.263-6.955-0.773
		c0.473-0.66-0.147-1.663,0.194-2.124c2.84-0.701,7.601,0.519,9.851-0.773c0.572-1.466,0.701-4.984-0.193-6.181
		c-5.04,0.288-12.009-1.038-16.998-0.194c-0.236,0.041-0.431,0.247-0.58,0.387c-0.943,0.659-0.579,4.144-0.579,6.181
		c0,6.684-0.151,14.091,0.193,19.509c5.321,0.745,12.715,0.403,18.35,0.194c0.625-1.331,0.552-4.447,0-5.795
		C86.513,39.658,82.255,40.375,79.267,39.82z"/>
	<path fill-rule="evenodd" clip-rule="evenodd" d="M108.241,35.765c0.914-0.546,2.205-1.375,2.898-2.513
		c0.221-0.361,0.151-1.014,0.388-1.544c0.267-0.601,0.676-0.827,0.771-1.353c0.648-3.518-1.174-6.34-2.702-8.307
		c-1.612-0.745-3.193-1.987-5.603-2.318c-3.434-0.469-7.751,0.35-11.59,0c-0.278,0.108-0.473,0.302-0.58,0.58
		c-0.195,0-0.229,0.157-0.386,0.194c0.099,7.651-0.236,17.345,0.193,25.303c1.909,0.667,5.523,0.44,7.726,0.194
		c0.673-2.29-0.414-6.338,0.58-8.307c2.152,2.289,2.638,6.246,5.023,8.307c1.972,0.075,6.582,0.883,7.533-0.58
		c0.013-1.498-1.386-3.248-2.125-4.636C109.987,38.781,108.551,37.837,108.241,35.765z M104.027,31.128
		c-0.971,0.58-3.027,0.345-4.027,0.386c0-1.609,0-3.219,0-4.829c1,0.041,3.17-0.193,4.139,0.387
		C104.656,28.132,104.543,30.067,104.027,31.128z"/>
	<path fill-rule="evenodd" clip-rule="evenodd" d="M123.117,40.013c0.141-1.335-0.356-3.316,0.386-4.056
		c2.315-0.07,5.751,1.166,6.76-0.772c0.479-0.921,0.245-4.412-0.192-5.023c-1.168-1.627-4.646-0.206-6.953-0.965
		c0.122-0.777-0.253-2.053,0.191-2.511c3.004-0.214,6.896,0.456,9.272-0.386c0.717-1.647,0.711-4.697,0-6.374
		c-5.283-0.449-11.396-0.066-16.997-0.194c-0.281,0.108-0.474,0.302-0.58,0.58c-0.325,8.114-0.325,17.577,0,25.691
		c2.809,0.338,6.169,0.193,9.463,0.193c3.258,0,6.671,0.426,9.08-0.58c0.4-1.587,0.306-4.277-0.388-5.408
		C130.148,39.804,126.434,40.109,123.117,40.013z"/>
	<path fill-rule="evenodd" clip-rule="evenodd" d="M142.917,27.264c1.354-1.034,2.488-1.134,3.912-0.579
		c1.284,0.5,1.675,2.29,2.727,2.511c1.339,0.284,2.233-0.693,3.489-1.353c1.298-0.27,2.212-0.846,2.324-1.738
		c0.221-1.792-2.554-2.967-3.089-4.249c-0.961-0.135-1.56-0.627-2.122-1.159c-1.346,0.087-2.474-0.806-3.862-0.967
		c-2.484-0.287-4.715,0.663-6.762,1.159c-1.645,1.06-3.104,2.303-4.248,3.864c-0.576,2.246-0.552,3.91,0,6.181
		c2.415,3.831,7.354,5.136,11.977,6.761c0.006,0.893,1.165,0.635,0.964,1.738c-1.172,1.355-3.213,1.174-5.02,0.579
		c-0.596-0.372-0.866-1.065-1.739-1.159c-0.047-1.178-1.001-1.445-1.934-1.738c-1.001,0.738-2.608,0.871-3.477,1.738
		c-0.644,0.197-1.65,0.023-1.739,0.773c-0.611,2.867,2.532,3.647,3.673,5.41c0.964-0.002,1.41,0.521,1.931,0.965
		c3.316,0.307,7.506,0.307,10.822,0c1.654-1.051,4.256-2.203,4.256-3.671c0-2.318,0-4.636,0-6.954c-4-3.45-6.518-4.754-10.82-6.181
		C143.873,28.407,142.917,28.362,142.917,27.264z"/>
	<path fill-rule="evenodd" clip-rule="evenodd" d="M45.354,18H36v1.507c-2,0.005-2.636,0.032-3.897,0.032
		c-2.185,0-4.705-0.351-5.875,0.772c-0.314,2.105-0.354,5.429-0.04,7.533c2.132,1.668,7.075,0.504,10.218,1.159
		c0.127,5.54-0.266,11.588,0.183,16.805c1.938,0.645,6.16,0.599,8.108,0c-0.113-5.769,0.147-11.912-0.112-17.536l0.044-0.432
		L45.354,18z"/>
</g>
</svg>
