<?xml version="1.0" encoding="utf-8"?>
<!-- Generator: Adobe Illustrator 15.1.0, SVG Export Plug-In . SVG Version: 6.00 Build 0)  -->
<!DOCTYPE svg PUBLIC "-//W3C//DTD SVG 1.1//EN" "http://www.w3.org/Graphics/SVG/1.1/DTD/svg11.dtd">
<svg version="1.1" id="Capa_1" xmlns="http://www.w3.org/2000/svg" xmlns:xlink="http://www.w3.org/1999/xlink" x="0px" y="0px"
	 width="166.667px" height="60.667px" viewBox="0 0 166.667 60.667" enable-background="new 0 0 166.667 60.667"
	 xml:space="preserve">
<g>
	<path fill-rule="evenodd" clip-rule="evenodd" d="M17.187,5.023c0.798-0.334,3.593-0.253,4.829,0.195
		c1.437,0.516,2.547,1.858,3.863,2.701c2.733,1.758,6.277,3.159,11.976,2.319c0.954-0.139,1.756-0.791,2.705-0.964
		c0.893-0.164,1.793-0.02,2.704-0.196c0.542-0.104,1.122-0.375,1.738-0.579c1.177-0.391,2.071-0.797,3.092-1.159
		c0.617-0.217,1.186-0.167,1.737-0.385c2.058-0.809,3.167-2.591,6.181-1.933c1.663,0.364,2.561,2.244,3.478,3.672
		c0.306,5.218-0.331,10.343-0.193,15.066c0.021,0.693,0.045,1.44,0.193,2.123c0.174,0.793,0.822,1.524,0.966,2.317
		c0.516,2.844-0.015,8.602-0.771,10.627c-1.486,3.965-6.181,9.227-9.272,11.781c-0.701,0.58-1.771,0.97-2.705,1.546
		c-0.943,0.58-1.775,1.332-2.511,1.544c-0.82,0.236-1.591-0.016-2.317,0.195c-0.8,0.229-0.94,0.806-1.739,1.159
		c-0.902,0-1.803,0-2.705,0c-0.825-0.183-0.521,0.765-1.159,0.771c-2.317,0-4.636,0-6.953,0c-0.888,0.18-0.673-0.742-1.352-0.771
		c-2.672,0.29-3.296-1.471-5.988-1.159c-0.681-0.736-1.753-1.083-2.897-1.354c-2.07-2.903-4.96-5.49-6.181-9.465
		c-1.108-3.604-1.587-9.236-0.967-14.294c0.27-2.189,1.591-4.371,1.738-6.566c0.173-2.559-0.045-5.649,0-8.692
		C14.736,9.529,14.447,6.349,17.187,5.023z M19.119,10.434c0.352,2.573,1.05,6.34,0.58,9.271c-0.1,0.617-0.608,1.087-0.773,1.739
		c-0.382,1.499-0.403,3.641-0.58,5.599c-0.309,3.455-1.063,6.661-0.965,10.239c0.095,3.521,1.917,8.755,4.057,10.238
		c0.298,0.206,0.836,0.057,1.545,0.384c0.4,0.187,0.805,0.852,1.159,0.968c0.68,0.221,1.488-0.009,2.317,0.192
		c0.968,0.236,1.682,0.844,2.512,0.967c2.692,0.396,6.748-0.199,9.464-0.192c0.575,0,1.307,0.277,1.739,0.192
		c1.345-0.265,1.716-1.672,3.477-1.159c0.67-0.361,0.819-1.241,2.126-0.968c2.541-2.155,5.437-3.961,7.34-6.758
		c0.906-1.172,1.065-2.242,1.544-3.864c0.201-0.681,0.642-1.146,0.773-1.739c1.072-4.812-0.749-10.118-1.545-14.099
		c0.645-2.173,0.456-5.207,0.58-7.921c0.058-1.278,0.617-2.706-0.193-3.67c-1.325,0.284-1.897,1.323-3.284,1.544
		c-1.332,0.727-2.686,2.044-4.443,2.126c-0.572,0.025-0.998-0.258-1.545-0.192c-0.975,0.113-1.865,0.64-2.898,0.772
		c-0.836,0.106-1.742-0.102-2.511,0c-1.048,0.139-1.895,0.813-2.897,0.966c-2.137,0.325-7.778,0.347-9.464,0
		c-1.45-0.299-1.384-1.267-2.126-1.934c-0.141-0.126-0.638-0.104-0.771-0.191c-1.471-0.98-3.467-2.753-5.023-3.091
		C19.301,10.101,19.064,10.122,19.119,10.434z"/>
	<path fill-rule="evenodd" clip-rule="evenodd" d="M73.397,14.682c0.662,0.627,1.059,1.516,1.16,2.706
		c0.846,1.663,1.824,3.196,2.123,5.408c1.002,0.305,1.41-1.516,1.547-2.706c1.061-1.578,1.543-3.735,2.51-5.408
		c1.443-0.245,4.059-0.439,5.213,0.192c0.686,2.16,0.393,5.108,0.393,7.922c0,2.755,0.275,5.618-0.393,7.725
		c-1.137,0.305-3.301,0.305-4.439,0c-0.398-1.402-0.1-3.503-0.193-5.216c-0.918,0.438-0.51,2.195-1.352,2.705
		c-0.066,0.901-0.209,1.724-0.58,2.319c-1.033,0.62-2.615,0.578-3.67,0.386c-1.494-0.698-1.43-2.946-2.318-4.25
		c-0.977,0.771,0.289,2.598-0.385,3.672c-0.734,0.888-3.367,0.647-4.637,0.384c-0.594-0.643-0.475-1.474-0.387-2.702
		c0.281-3.98-0.516-9.795,0.387-13.137C69.761,14.386,72.013,14.386,73.397,14.682z"/>
	<path fill-rule="evenodd" clip-rule="evenodd" d="M92.521,14.682c0.289,4.828,0.369,11.609,0,15.839
		c-1.141,0.305-3.303,0.305-4.441,0c-0.641-2.169-0.389-5.275-0.389-8.112c0-2.835-0.375-5.786,0.578-7.727
		C89.409,14.433,91.399,14.342,92.521,14.682z"/>
	<path fill-rule="evenodd" clip-rule="evenodd" d="M109.714,20.864c-1.439,0.249-3.049,0.582-4.25,0.192
		c-0.756-0.243-1.004-1.254-1.736-1.547c-1.088-0.429-1.582-0.084-2.898,0c-0.75,0.958-1.635,2.129-1.547,3.477
		c0.111,1.752,1.867,3.509,3.477,3.286c1.398-0.195,1.395-1.677,2.898-2.127c1.473,0.073,3.324-0.232,4.248,0.388
		c0.18,5.846-5.857,6.879-11.395,5.796c-0.9-1.031-2.246-1.62-3.092-2.706c-0.146-1.077-0.713-1.732-1.16-2.51
		c0-1.805,0-3.606,0-5.408c1.096-1.225,1.764-2.872,3.094-3.864c2-1.229,5.313-2.021,8.111-1.159
		c0.244,0.076,1.695,0.807,2.123,1.159c0.063,0.05,1.002,0.979,1.158,1.159C109.667,18.052,110.296,19.648,109.714,20.864z"/>
	<path fill-rule="evenodd" clip-rule="evenodd" d="M116.089,14.874c0.828,1.48,0.033,4.031,0.387,5.603
		c0.75,0.294,2.211-0.183,3.477,0c0.676-1.205-0.232-3.772,0.385-5.407c0.9-0.79,3.701-0.8,4.832-0.195
		c0.633,4.305,0.633,11.149,0,15.455c-0.928,0.594-3.717,0.594-4.637,0c-0.719-1.138-0.363-3.761-0.195-5.216
		c-0.688-0.728-2.582-0.249-3.861-0.388c-0.307,1.465,0.418,4.352-0.387,5.795c-1.391,0.151-3.424,0.621-4.445,0
		c-0.365-4.166-0.289-10.885,0-15.646C112.485,14.175,115.202,14.392,116.089,14.874z"/>
	<path fill-rule="evenodd" clip-rule="evenodd" d="M132.313,14.874c0.318,4.712,0.318,10.742,0,15.455
		c-1.162,0.516-3.574,0.715-4.637,0.191c-0.33-2.183-0.191-5.018-0.191-7.918c0-2.714-0.289-6.214,0.385-7.729
		C128.745,14.141,131.366,14.452,132.313,14.874z"/>
	<path fill-rule="evenodd" clip-rule="evenodd" d="M76.874,40.18c0.988-0.429,1.16-1.676,1.354-2.897
		c1.061-1.577,1.543-3.734,2.51-5.407c1.232-0.034,3.758-0.145,5.213,0.191c0.686,2.157,0.393,5.109,0.393,7.921
		c0,2.756,0.275,5.616-0.393,7.727c-1.564,0.32-2.729,0.405-4.244,0.19c-0.758-1.174-0.232-3.63-0.389-5.406
		c-0.527,0.52-0.904,1.508-1.16,2.317c-0.285,0.916-0.297,1.943-0.771,2.705c-1.225,0.637-2.684,0.652-4.057,0.384
		c-0.875-1.183-1.221-2.896-1.932-4.248c-0.977,0.771,0.289,2.596-0.385,3.67c-1.195,1.014-3.502,0.948-4.83,0.194
		c-0.398-0.626-0.271-1.416-0.193-2.513c0.277-3.918-0.363-9.253,0.193-12.941c2.316-0.03,4.643-0.985,5.795,0.388
		c0.447,0.532,0.311,1.43,0.58,2.123c0.33,0.857,0.654,0.957,0.965,2.317C75.751,37.893,76.901,38.703,76.874,40.18z"/>
	<path fill-rule="evenodd" clip-rule="evenodd" d="M98.315,32.066c0.314,1.339,0.504,2.904-0.191,3.864
		c-1.346,0.338-3.67,0.265-5.023,0c-0.268,0.542-0.512,1.109-0.193,1.739c1.031,0.271,3.574-0.372,4.637,0.384
		c0.576,0.744,0.646,3.188-0.191,3.673c-1.121,0.422-3.012,0.082-4.445,0.191c-0.063,0.454-0.305,0.725-0.191,1.352
		c1.1,0.961,4.176-0.057,5.6,0.58c0.24,1.263,0.498,2.625,0,3.671c-1.102,0.788-3.168,0.384-5.02,0.384
		c-1.924,0-3.898,0.219-5.217-0.19c-0.641-4.395-0.623-11.25,0-15.647C91.173,31.885,95.438,31.226,98.315,32.066z"/>
	<path fill-rule="evenodd" clip-rule="evenodd" d="M110.101,41.918c0.555,0.859,1.033,1.802,1.543,2.705
		c0.24,1.115,1.582,1.126,1.354,2.703c-0.188,0.006-0.15,0.235-0.193,0.388c-1.613,0.585-3.547,0.396-5.408-0.193
		c-0.766-1.102-0.92-2.815-2.127-3.477c-0.459,0.954,0.084,2.914-0.578,3.67c-1.475,0.484-3.23,0.509-4.637-0.193
		c-0.535-4.749-0.541-10.708,0-15.454c4.797-0.522,10.053-1.137,12.17,2.511c0.211,0.365,0.725,0.916,0.773,1.158
		c0.24,1.191-0.119,3.5-0.965,4.636C111.519,41.062,110.626,40.921,110.101,41.918z M104.886,37.862
		c0.711,0.8,2.645,0.629,2.896-0.58C107.185,35.963,104.679,35.61,104.886,37.862z"/>
	<path fill-rule="evenodd" clip-rule="evenodd" d="M128.837,38.249c-2.195,0.202-4.922,0.362-5.795-1.546
		c-1.068-0.212-2.252-0.283-3.09,0.191c-0.615,1.206-1.393,1.776-1.354,3.093c0.057,1.963,2.119,3.912,3.863,3.477
		c0.844-0.21,1.053-1.369,1.932-1.933c1.393-0.199,3.734-0.461,4.83,0.195c-0.006,0.658,0.152,1.35,0,1.93
		c-0.252,0.949-2.412,3.357-3.672,3.864c-0.318,0.126-2.264,0.535-2.703,0.58c-1.404,0.135-3.678-0.225-4.635-0.58
		c-0.34-0.125-0.617-0.418-1.16-0.774c-1.719-1.121-2.594-2.481-3.477-4.636c-0.078-2.825-0.068-4.513,0.771-6.18
		c0.451-0.9,1.535-2.34,2.318-2.896c0.211-0.151,0.879-0.107,1.352-0.388c0.391-0.233,0.447-0.671,0.775-0.771
		c1.576-0.498,4.572-0.406,5.986,0C126.226,32.287,130.868,36.089,128.837,38.249z"/>
	<path fill-rule="evenodd" clip-rule="evenodd" d="M135.599,32.066c0.318,4.775,0.318,10.869,0,15.647
		c-1.404,0.516-3.199,0.411-4.637-0.193c-0.344-2.352-0.195-5.28-0.195-8.111c0-2.731-0.418-5.643,0.58-7.534
		C132.626,31.783,134.659,31.332,135.599,32.066z"/>
	<path fill-rule="evenodd" clip-rule="evenodd" d="M152.788,35.735c0.479,1.887,1.471,3.286,1.158,5.216
		c-0.072,0.45-0.473,0.661-0.771,1.354c-0.584,1.338-0.727,2.444-1.738,3.477c-0.752,0.766-1.805,1.018-2.318,1.738
		c-1.465-0.312-2.422,0.904-3.668,0.964c-1.184,0.057-2.885-0.712-3.865-1.158c-1.975-0.897-3.188-2.731-4.248-4.057
		c-0.344-1.783-0.145-4.107-0.195-6.18c1.516-3.357,5.117-6.466,10.43-5.411c-0.027-0.005,0.326,0.167,0.389,0.196
		C149.858,32.696,151.739,33.953,152.788,35.735z M143.323,36.703c-0.809,1.062-1.451,2.283-1.158,4.443
		c0.535,0.942,1.48,1.48,2.125,2.317c2.029,0.416,2.496-0.724,3.67-1.158C148.958,38.517,147.464,35.352,143.323,36.703z"/>
</g>
</svg>
