<?xml version="1.0" encoding="utf-8"?>
<!-- Generator: Adobe Illustrator 15.1.0, SVG Export Plug-In . SVG Version: 6.00 Build 0)  -->
<!DOCTYPE svg PUBLIC "-//W3C//DTD SVG 1.1//EN" "http://www.w3.org/Graphics/SVG/1.1/DTD/svg11.dtd">
<svg version="1.1" id="Capa_1" xmlns="http://www.w3.org/2000/svg" xmlns:xlink="http://www.w3.org/1999/xlink" x="0px" y="0px"
	 width="166.667px" height="60.667px" viewBox="0 0 166.667 60.667" enable-background="new 0 0 166.667 60.667"
	 xml:space="preserve">
<g>
	<path fill-rule="evenodd" clip-rule="evenodd" d="M90.856,4.608c1.415,2.997,2.151,6.675,3.441,9.801
		c3.25-0.064,6.23,0.128,6.624,2.384c0.603,3.492-4.554,4.732-8.212,5.566c-7.393,1.672-17.294,1.742-24.9,0
		c-3.733-0.858-8.802-2.214-8.213-5.566c0.361-2.058,3.219-2.4,6.358-2.384c1.419-2.995,2.301-6.526,3.442-9.801
		C75.279,2.641,84.988,2.518,90.856,4.608z M66.219,16.266c-0.056-0.321-0.294-0.164-0.529,0c-0.101,2.999,6.176,3.504,10.861,3.709
		c5.1,0.223,10.137,0.039,14.04-0.797c1.861-0.398,4.92-0.805,3.972-2.912C87.753,18.999,73.919,18.965,66.219,16.266z"/>
	<path fill-rule="evenodd" clip-rule="evenodd" d="M57.557,22.691c0.787,2.826-0.666,6.18-0.645,9.311
		c2.006-1.849,0.467-7.239,2.568-8.988c-0.45,2.972-0.893,5.952-0.962,9.306c1.271-2.476,0.99-6.499,1.926-9.306
		c0.741,2.77-0.542,6.302-0.642,9.306c1.016-0.803,1.043-2.574,1.283-4.174c0.237-1.597,0.167-3.443,0.643-4.815
		c0.991,1.359,0.095,7.606-0.323,10.591c-0.452,0.62-1.558,0.585-2.247,0.969c-0.258,4.064-0.741,9.105-1.283,13.159
		c-0.226,1.684,0.217,3.758-1.604,4.494c-2.841-1.344-1.107-5.501-0.644-8.348c0.522-3.198,1.18-6.429,1.606-8.987
		c0.013-1.19-1.203-1.151-1.606-1.927C55.688,29.17,56.603,25.91,57.557,22.691z"/>
	<path fill-rule="evenodd" clip-rule="evenodd" d="M100.571,23.331c1.841,1.376,1.793,4.483,2.245,7.064
		c0.879,4.993,1.675,10.372,2.568,15.728c0.365,2.183,2.021,5.482-0.64,6.421c-3.05-1.283-1.196-5.61-1.605-9.31
		c-0.254-2.286-2.069-3.749-2.893-5.457c-1.832-3.821-2.36-10.907-0.319-14.446C100.142,23.331,100.356,23.331,100.571,23.331z"/>
	<path fill-rule="evenodd" clip-rule="evenodd" d="M64.618,23.973c1.222,0.382,2.785,0.425,3.851,0.964
		c-0.38,1.222-0.853,2.358-1.283,3.53c0.039,0.712,1.359,0.137,1.924,0.323c0,0.428,0,0.854,0,1.283
		c-1.033-0.143-1.739-0.614-2.887-0.642c0.473-1.237,0.493-2.93,0.962-4.176c-0.75,0-1.5,0-2.248,0
		c0.897,0.953,1.311,1.474-0.321,1.928c-0.289,1.035,1.046,0.453,1.283,0.962c-0.243,1.196-1.802,0.176-2.568,0
		C63.862,26.856,64.09,25.265,64.618,23.973z"/>
	<path fill-rule="evenodd" clip-rule="evenodd" d="M96.72,27.828c-1.177-0.209-1.23,0.693-2.249,0.64
		c-0.113-1.6,0.243-3.666-0.962-4.172c-0.14,0.115-0.31,0.198-0.495,0.267c0.137,0.382,0.456,0.851,0.241,1.049
		c0.242,1.33,0.516,2.627,0.894,3.82C95.013,28.901,97.124,29.625,96.72,27.828z"/>
	<path fill-rule="evenodd" clip-rule="evenodd" d="M90.439,28.508c0,0-0.017-1.066-0.143-1.001c-0.011-1.489-0.91-2.083-2.566-1.928
		c-0.188,1.685,0.564,2.431,0.319,4.174c1.531,0.434,1.772-0.421,2.23-1.061L90.439,28.508 M89.337,29.109
		c-0.66-0.217-0.946-2.448-0.644-2.568C90.014,26.572,89.65,28.282,89.337,29.109z"/>
	<path fill-rule="evenodd" clip-rule="evenodd" d="M91.584,27.828c1.457-0.471,0.86-1.333-0.322-1.606
		c0.304-0.347,0.704-0.599,1.183-0.77c0-0.202,0-0.461,0-0.745c-0.76,0.139-1.632,0.163-2.147,0.549
		c-0.196,0.626,0.51,2.954,0.544,2.937c0-0.009-0.004-0.041-0.004-0.041c0-0.001,0.004,0.271,0.004,0.408c0,0.289,0,0.582,0,0.872
		c0.964,0.157,1.185-0.579,2.297-0.323C93.627,27.653,91.091,29.279,91.584,27.828z"/>
	<path fill-rule="evenodd" clip-rule="evenodd" d="M72.002,25.901c1.222-0.221,2.273,0.575,1.605,1.283
		c-1.042,0.395-0.249-1.038-1.285-0.644c-0.07,1.782,1.708,1.717,1.285,3.855c-0.914,0.512-3.716,0.634-3.853-0.643
		c1.057,0.013,1.598,0.541,2.887,0.321C72.332,28.874,70.959,27.427,72.002,25.901z"/>
	<path fill-rule="evenodd" clip-rule="evenodd" d="M81.308,25.901c2.729-0.449,2.868,3.887,0.964,4.495
		C80.132,30.268,79.823,27.019,81.308,25.901z M82.272,29.752c0.146-1.104,0.708-2.594-0.641-2.891
		C81.768,27.898,81.209,29.639,82.272,29.752z"/>
	<path fill-rule="evenodd" clip-rule="evenodd" d="M85.483,25.901c0.981,1.63-0.285,2.333,0.961,4.172c-0.427,0-0.854,0-1.283,0
		c-0.175-0.467,0.374-1.66-0.319-1.606c-0.806-0.152,0.773,1.474-0.322,1.606c-1.422-0.184-0.123-3.089-0.962-3.852
		C83.936,25.851,84.692,25.86,85.483,25.901z M85.161,27.184c-0.423-0.003-0.291-0.562-0.642-0.644
		C84.152,27.203,85.023,28.072,85.161,27.184z"/>
	<path fill-rule="evenodd" clip-rule="evenodd" d="M96.72,31.035c1.3,1.035-0.522,2.164-0.645,3.53
		c-0.21,2.43,0.576,4.372-0.961,6.101c-2.538,2.855-9.264,2.5-11.557,0c-1.344-1.465-1.011-4.545-3.851-4.174
		c-1.611,0.212-2.622,4.161-4.174,5.137c-3.004,1.889-8.741,1.234-10.593-1.282c-1.6-2.178-0.662-6.537-1.605-9.312
		c0.261-0.059,0.319-0.322,0.643-0.321c5.483-0.031,10.623,1.889,16.05,1.926C85.677,32.68,91.202,30.42,96.72,31.035z
		 M65.901,33.282c-5.862,9.02,14.096,11.51,10.593,0.965C73.398,33.709,69.024,31.738,65.901,33.282z M83.557,34.565
		c-3.076,9.631,16.146,8.446,10.914-1.283C91.06,32.025,86.522,33.445,83.557,34.565z"/>
	<path fill-rule="evenodd" clip-rule="evenodd" d="M66.224,43.234c0.152,1.348-0.225,3.825-0.966,3.211
		c-1.509-0.135,0.237-1.665-0.319-2.889c-3.365,1.603,1.339,8.02-1.605,10.271c-1.364,0.406-2.085-0.07-3.209-0.64
		c0.107-1.287-0.415-3.196,0.962-3.212c1.781,0.09-0.819,2.682,0.962,2.89c2.697-2.118-1.671-8.279,1.604-10.274
		C64.881,42.438,65.705,42.686,66.224,43.234z"/>
	<path fill-rule="evenodd" clip-rule="evenodd" d="M96.72,42.591c1.648,2.954,3.006,6.198,3.527,10.274
		c-0.929,0.879-2.086,1.405-3.527,0.962c-1.34-2.938-2.103-6.458-2.891-9.949C94.378,43.034,95.003,42.267,96.72,42.591z
		 M95.114,44.518c1.389,2.466,0.998,6.704,3.208,8.348c1.147-2.342-1.479-5.843-1.925-8.669c-0.064-0.357-0.356-0.499-0.642-0.64
		C95.729,44.063,94.938,43.806,95.114,44.518z"/>
	<path fill-rule="evenodd" clip-rule="evenodd" d="M70.394,44.518c-0.335,3.943-0.684,7.875-2.246,10.597
		c-1.168,0.098-2.087-0.052-2.891-0.324c-0.882-3.262,0.888-8.494,2.572-11.233c0.532,0,1.068,0,1.602,0
		C69.612,44.017,69.933,44.341,70.394,44.518z M67.83,45.802c-0.105,1.239-0.682,2.772-0.966,4.174
		c-0.252,1.265-1.302,3.125,0,3.852c1.17-0.575,1.335-2.553,1.605-3.852c0.341-1.641,0.501-3.496,0.642-5.136
		c-0.322,0-0.642,0-0.962,0C68.164,45.281,67.997,45.545,67.83,45.802z"/>
	<path fill-rule="evenodd" clip-rule="evenodd" d="M95.756,54.79c-3.213,0.7-1.187-5.38-3.532-4.495
		c-0.415,1.07,0.798,3.264,0.646,5.138c-2.173,0.347-1.611-2.367-1.931-3.851c-0.504-2.364-0.97-4.847-1.602-7.064
		c0.584-0.946,2.516-1.035,3.532-0.64C93.835,47.755,94.925,51.567,95.756,54.79z M92.224,49.01c1.054-0.514,0.161-3.78-0.962-4.17
		C90.829,45.847,91.258,48.374,92.224,49.01z"/>
	<path fill-rule="evenodd" clip-rule="evenodd" d="M71.677,44.196c0.911-0.263,0.834,0.452,1.606,0.321
		c0.082,3.058-0.347,5.115-0.319,7.383c1.436-1.774,0.981-5.438,2.25-7.383c0.256,0.061,0.319,0.322,0.64,0.322
		c1.487,0.759,0.393,2.455,0.321,3.852c-0.126,2.479-0.056,5.644-0.642,7.704c-2.418,0.068-0.371-3.996-0.644-5.779
		c-1.276,1.292-0.28,4.859-2.247,5.46c-1.443-0.912-0.254-4.455-0.64-6.423c-0.964,1.605-0.058,5.081-1.608,6.099
		c-1.203-0.734-0.306-3.258,0-5.136c0.293-1.788,0.768-3.857,0.966-5.454C71.27,44.644,71.663,44.61,71.677,44.196z"/>
	<path fill-rule="evenodd" clip-rule="evenodd" d="M89.016,44.518c0.145,1.003-0.689,1.027-1.605,0.964
		c-0.085,2.117-0.066,4.133,1.927,4.172c0.095,0.846-0.445,1.055-1.287,0.963c-0.243,1.742,0.396,2.601,0.322,4.174
		c0.996,0.424,1.782-0.952,2.246,0c0.025,1.629-2.164,1.047-3.528,1.286c-0.356-3.927-0.818-7.745-1.285-11.559
		C87.232,44.873,88.143,43.742,89.016,44.518z"/>
	<path fill-rule="evenodd" clip-rule="evenodd" d="M77.458,44.84c1.003,0.065,2.355-0.215,2.889,0.322
		c0.714,0.798,1.224,4.441,0,5.133c0.799,1.102,0.944,4.294,0.319,5.781c-0.775,0.612-2.579,0.198-3.851,0.319
		C77.045,52.559,77.11,48.56,77.458,44.84z M78.421,49.976c1.927,0.659,1.804-4.082,0.321-3.853
		C78.449,47.48,78.467,47.955,78.421,49.976z M78.742,55.433c1.285-0.228,1.205-3.124,0.642-4.174c-0.323,0-0.642,0-0.962,0
		C78.627,52.552,78.004,54.673,78.742,55.433z"/>
	<path fill-rule="evenodd" clip-rule="evenodd" d="M81.631,44.84c1.09,0.087,2.603-0.248,3.211,0.322
		c0.983,3.813,0.367,7.482,1.603,11.233c-3.247,0.679-0.965-4.167-2.566-5.137c-1.635,0.397,0.154,4.223-0.964,5.137
		c-1.778-0.163-0.854-2.631-0.96-3.852c-0.202-2.266-0.514-4.613-0.322-6.742C81.631,45.481,81.631,45.162,81.631,44.84z
		 M83.236,50.295c1.919-0.139,0.536-2.917,0.642-4.172c-0.321,0-0.642,0-0.964,0C82.817,47.72,82.966,49.069,83.236,50.295z"/>
	<path fill-rule="evenodd" clip-rule="evenodd" d="M74.247,25.901c0.195,1.691-0.237,2.757-0.321,4.172
		c0.768-0.195,2.329,0.404,2.568-0.321c-0.219-0.636-1.912,0.2-1.606-0.962c1.183-0.273,1.782-1.137,0.325-1.606
		c-0.024-0.495,0.96-0.79,1.528-0.792c0.013-0.141,0.044-0.288,0.061-0.445C75.951,25.697,75.05,25.638,74.247,25.901z"/>
	<path fill-rule="evenodd" clip-rule="evenodd" d="M80.027,25.901c-0.543-0.436-2.459-0.864-2.25-0.322
		c0.573,0.18,1.335,0.165,1.606,0.643c0,0.428,0,0.858,0,1.285c-0.484-0.553-1.251-1.066-2.11-1.398
		c-0.054,0.129-0.108,0.259-0.148,0.387c0.005,0.015,0.013,0.028,0.011,0.044c0,1.395,0,2.782,0,4.174
		c1.503,0.327-0.058-2.412,0.964-2.568c0.63,0.868,0.581,2.42,2.248,2.249C79.854,29.283,80.062,27.468,80.027,25.901z"/>
</g>
</svg>
