<?xml version="1.0" standalone="no"?>
<!DOCTYPE svg PUBLIC "-//W3C//DTD SVG 20010904//EN"
 "http://www.w3.org/TR/2001/REC-SVG-20010904/DTD/svg10.dtd">
<svg version="1.0" xmlns="http://www.w3.org/2000/svg"
 width="225.000000pt" height="225.000000pt" viewBox="0 0 225.000000 225.000000"
 preserveAspectRatio="xMidYMid meet">

<g transform="translate(0.000000,225.000000) scale(0.100000,-0.100000)"
fill="#000000" stroke="none">
<path d="M1060 2244 c-116 -20 -153 -29 -204 -51 -229 -96 -388 -295 -431
-538 -27 -159 -18 -215 35 -215 39 0 50 23 50 107 0 219 138 435 343 540 205
103 467 75 655 -71 138 -107 232 -297 232 -469 0 -37 5 -77 10 -88 14 -26 66
-26 80 0 24 46 -3 242 -49 352 -86 204 -287 373 -496 417 -60 13 -190 22 -225
16z"/>
<path d="M991 2024 c-83 -22 -150 -62 -222 -134 -102 -100 -149 -213 -149
-355 0 -75 9 -95 45 -95 33 0 45 20 45 72 0 118 46 234 125 313 59 58 116 89
210 112 58 14 78 15 137 5 213 -37 358 -211 358 -430 0 -52 12 -72 45 -72 36
0 45 20 45 95 0 142 -47 255 -149 355 -74 73 -139 112 -226 135 -73 19 -192
18 -264 -1z"/>
<path d="M1057 1830 c-88 -22 -163 -83 -208 -170 -23 -43 -24 -55 -27 -292
l-4 -248 -138 0 c-130 0 -140 -1 -154 -21 -24 -36 -7 -63 45 -69 l44 -5 6 -55
c23 -214 191 -400 400 -441 l59 -12 0 -208 0 -209 -113 0 c-98 0 -116 -3 -130
-18 -23 -25 -21 -48 5 -66 19 -14 63 -16 283 -16 220 0 264 2 283 16 27 18 28
45 4 67 -15 14 -40 17 -130 17 l-112 0 0 209 0 208 59 12 c209 41 377 227 400
441 l6 55 44 5 c52 6 69 33 45 69 -14 20 -24 21 -154 21 l-138 0 -4 248 c-3
245 -3 247 -30 297 -67 126 -212 197 -341 165z m164 -118 c43 -22 59 -38 81
-81 l28 -53 0 -303 c0 -297 0 -303 -23 -346 -13 -24 -43 -57 -66 -74 -38 -27
-51 -30 -116 -30 -65 0 -78 3 -116 30 -23 17 -53 50 -66 74 -23 43 -23 49 -23
346 l0 303 28 53 c22 43 38 59 81 81 34 18 69 28 96 28 27 0 62 -10 96 -28z
m-397 -728 c20 -150 151 -264 301 -264 150 0 281 114 301 264 l7 46 48 0 c26
0 51 -5 54 -10 14 -23 -26 -158 -64 -217 -203 -315 -675 -221 -751 149 -6 32
-9 62 -5 68 3 5 28 10 54 10 l48 0 7 -46z"/>
</g>
</svg>
