<?xml version="1.0" standalone="no"?>
<!DOCTYPE svg PUBLIC "-//W3C//DTD SVG 20010904//EN"
 "http://www.w3.org/TR/2001/REC-SVG-20010904/DTD/svg10.dtd">
<svg version="1.0" xmlns="http://www.w3.org/2000/svg"
 width="230.000000pt" height="219.000000pt" viewBox="0 0 230.000000 219.000000"
 preserveAspectRatio="xMidYMid meet">

<g transform="translate(0.000000,219.000000) scale(0.100000,-0.100000)"
fill="#000000" stroke="none">
<path d="M1968 2151 c-18 -23 -61 -45 -191 -95 -93 -36 -176 -66 -185 -66 -10
0 -98 -31 -197 -69 -268 -102 -568 -211 -582 -211 -7 0 -145 -49 -308 -110
-172 -64 -309 -110 -330 -110 -74 0 -145 -57 -165 -131 -7 -25 -10 -246 -8
-632 l3 -593 27 -41 c16 -24 44 -49 70 -62 44 -21 46 -21 1048 -21 1002 0
1004 0 1048 21 26 13 54 38 70 62 l27 41 0 617 0 617 -30 43 c-60 85 5 79
-909 79 -467 0 -806 4 -801 9 6 5 73 32 150 61 77 28 147 58 155 65 8 8 96 45
195 83 326 126 540 213 555 226 8 8 92 43 187 79 157 61 174 65 203 54 29 -11
33 -10 56 16 25 29 25 55 2 85 -19 23 -65 14 -90 -17z m192 -791 c20 -20 20
-33 20 -609 l0 -590 -26 -20 c-27 -21 -30 -21 -1004 -21 -974 0 -977 0 -1004
21 l-26 20 0 590 c0 576 0 589 20 609 20 20 33 20 1010 20 977 0 990 0 1010
-20z"/>
<path d="M1461 1194 c-128 -34 -235 -124 -297 -248 -33 -69 -38 -86 -42 -176
-4 -84 -1 -110 17 -167 43 -132 151 -248 274 -295 52 -19 81 -23 178 -23 113
0 116 1 193 38 204 102 306 318 251 532 -67 254 -324 406 -574 339z m225 -135
c57 -18 77 -31 129 -82 75 -75 100 -136 99 -242 -1 -122 -64 -225 -176 -286
-58 -32 -69 -34 -153 -34 -80 0 -97 3 -149 30 -65 33 -123 92 -157 163 -35 71
-34 196 2 273 56 119 170 194 300 198 20 1 67 -8 105 -20z"/>
<path d="M1520 812 c-63 -63 -25 -162 62 -162 31 0 46 7 70 30 27 27 30 36 25
72 -7 52 -33 78 -85 85 -36 5 -45 2 -72 -25z"/>
<path d="M222 1158 c-15 -15 -15 -51 0 -66 9 -9 110 -12 395 -12 380 0 382 0
394 21 8 16 8 28 0 45 l-11 24 -383 0 c-285 0 -386 -3 -395 -12z"/>
<path d="M227 972 c-21 -23 -22 -46 -1 -66 13 -14 58 -16 334 -16 276 0 321 2
334 16 21 21 20 47 -2 67 -16 15 -55 17 -334 17 -292 0 -316 -1 -331 -18z"/>
<path d="M226 784 c-22 -22 -20 -50 6 -68 19 -14 66 -16 310 -16 162 0 298 4
312 10 20 7 26 17 26 38 0 15 -5 33 -12 40 -9 9 -94 12 -319 12 -266 0 -310
-2 -323 -16z"/>
<path d="M222 598 c-15 -15 -15 -51 0 -66 17 -17 659 -17 676 0 15 15 15 51 0
66 -17 17 -659 17 -676 0z"/>
<path d="M227 412 c-21 -23 -22 -46 -1 -66 13 -14 64 -16 398 -16 358 0 384 1
399 18 22 24 21 45 -1 65 -17 15 -59 17 -399 17 -355 0 -381 -1 -396 -18z"/>
</g>
</svg>
