<?xml version="1.0" standalone="no"?>
<!DOCTYPE svg PUBLIC "-//W3C//DTD SVG 20010904//EN"
 "http://www.w3.org/TR/2001/REC-SVG-20010904/DTD/svg10.dtd">
<svg version="1.0" xmlns="http://www.w3.org/2000/svg"
 width="225.000000pt" height="225.000000pt" viewBox="0 0 225.000000 225.000000"
 preserveAspectRatio="xMidYMid meet">

<g transform="translate(0.000000,225.000000) scale(0.100000,-0.100000)"
fill="#000000" stroke="none">
<path d="M1349 1927 c-78 -22 -758 -387 -802 -431 -57 -56 -81 -116 -81 -201
0 -129 60 -217 187 -275 37 -16 67 -32 67 -35 0 -3 -27 -19 -61 -35 -132 -67
-194 -159 -193 -285 1 -118 63 -213 171 -262 46 -21 66 -25 131 -21 l77 3 368
195 c203 107 383 207 401 221 17 15 45 51 61 80 27 48 30 63 30 139 0 68 -5
93 -22 126 -38 72 -73 103 -156 143 l-81 39 77 42 c159 87 218 213 172 367
-41 137 -208 228 -346 190z m156 -86 c97 -44 148 -148 121 -251 -18 -69 -60
-110 -174 -172 l-93 -50 3 -46 3 -46 89 -38 c49 -21 100 -48 114 -60 86 -81
86 -236 0 -315 -12 -12 -187 -108 -388 -215 -356 -188 -366 -193 -425 -193
-114 0 -204 81 -213 191 -9 111 43 181 188 254 l80 40 0 49 0 49 -82 33 c-94
38 -143 77 -169 134 -37 81 -14 193 51 248 25 21 655 358 732 392 45 20 115
18 163 -4z"/>
<path d="M930 1155 l0 -206 93 50 c50 27 138 74 194 103 l101 54 -27 15 c-15
9 -102 55 -194 103 l-167 87 0 -206z"/>
</g>
</svg>
